<svg width="18" height="17" viewBox="0 0 18 17" fill="none" xmlns="http://www.w3.org/2000/svg">
<path id="Vector" d="M12.5466 10.0833H11.7536L11.4726 9.83583C12.4562 8.79083 13.0484 7.43417 13.0484 5.95833C13.0484 2.6675 10.1276 0 6.52421 0C2.92084 0 0 2.6675 0 5.95833C0 9.24917 2.92084 11.9167 6.52421 11.9167C8.14021 11.9167 9.62572 11.3758 10.77 10.4775L11.041 10.7342V11.4583L16.0596 16.0325L17.5551 14.6667L12.5466 10.0833ZM6.52421 10.0833C4.02494 10.0833 2.00745 8.24083 2.00745 5.95833C2.00745 3.67583 4.02494 1.83333 6.52421 1.83333C9.02348 1.83333 11.041 3.67583 11.041 5.95833C11.041 8.24083 9.02348 10.0833 6.52421 10.0833Z" fill="#323232"/>
</svg>
